<svg width="40" height="40" viewBox="0 0 40 40" fill="none" xmlns="http://www.w3.org/2000/svg">
<path d="M12 11.75C12 10.8958 12 10.4687 12.1353 10.1317C12.3158 9.68253 12.6618 9.32563 13.0975 9.13955C13.4242 9 13.8383 9 14.6667 9C15.495 9 15.9092 9 16.2359 9.13955C16.6715 9.32563 17.0176 9.68253 17.198 10.1317C17.3333 10.4687 17.3333 10.8958 17.3333 11.75V28.25C17.3333 29.1042 17.3333 29.5313 17.198 29.8683C17.0176 30.3175 16.6715 30.6744 16.2359 30.8604C15.9092 31 15.495 31 14.6667 31C13.8383 31 13.4242 31 13.0975 30.8604C12.6618 30.6744 12.3158 30.3175 12.1353 29.8683C12 29.5313 12 29.1042 12 28.25V11.75Z" fill="white"/>
<path d="M22.6667 11.75C22.6667 10.8958 22.6667 10.4687 22.802 10.1317C22.9824 9.68253 23.3285 9.32563 23.7641 9.13955C24.0908 9 24.505 9 25.3333 9C26.1617 9 26.5758 9 26.9025 9.13955C27.3382 9.32563 27.6842 9.68253 27.8647 10.1317C28 10.4687 28 10.8958 28 11.75V28.25C28 29.1042 28 29.5313 27.8647 29.8683C27.6842 30.3175 27.3382 30.6744 26.9025 30.8604C26.5758 31 26.1617 31 25.3333 31C24.505 31 24.0908 31 23.7641 30.8604C23.3285 30.6744 22.9824 30.3175 22.802 29.8683C22.6667 29.5313 22.6667 29.1042 22.6667 28.25V11.75Z" fill="white"/>
<path d="M12 11.75C12 10.8958 12 10.4687 12.1353 10.1317C12.3158 9.68253 12.6618 9.32563 13.0975 9.13955C13.4242 9 13.8383 9 14.6667 9C15.495 9 15.9092 9 16.2359 9.13955C16.6715 9.32563 17.0176 9.68253 17.198 10.1317C17.3333 10.4687 17.3333 10.8958 17.3333 11.75V28.25C17.3333 29.1042 17.3333 29.5313 17.198 29.8683C17.0176 30.3175 16.6715 30.6744 16.2359 30.8604C15.9092 31 15.495 31 14.6667 31C13.8383 31 13.4242 31 13.0975 30.8604C12.6618 30.6744 12.3158 30.3175 12.1353 29.8683C12 29.5313 12 29.1042 12 28.25V11.75Z" stroke="white" stroke-width="2"/>
<path d="M22.6667 11.75C22.6667 10.8958 22.6667 10.4687 22.802 10.1317C22.9824 9.68253 23.3285 9.32563 23.7641 9.13955C24.0908 9 24.505 9 25.3333 9C26.1617 9 26.5758 9 26.9025 9.13955C27.3382 9.32563 27.6842 9.68253 27.8647 10.1317C28 10.4687 28 10.8958 28 11.75V28.25C28 29.1042 28 29.5313 27.8647 29.8683C27.6842 30.3175 27.3382 30.6744 26.9025 30.8604C26.5758 31 26.1617 31 25.3333 31C24.505 31 24.0908 31 23.7641 30.8604C23.3285 30.6744 22.9824 30.3175 22.802 29.8683C22.6667 29.5313 22.6667 29.1042 22.6667 28.25V11.75Z" stroke="white" stroke-width="2"/>
</svg>
