<svg width="26" height="26" viewBox="0 0 26 26" fill="none" xmlns="http://www.w3.org/2000/svg">
    <path d="M4.57161 18.1685C4.3737 18.1685 4.17578 18.0956 4.01953 17.9394C2.59245 16.5019 1.80078 14.606 1.80078 12.5956C1.80078 8.41853 5.1862 5.02269 9.35287 5.02269L15.6758 5.04352L14.5404 3.96019C14.2279 3.65811 14.2174 3.16852 14.5195 2.85602C14.8216 2.54352 15.3112 2.53311 15.6237 2.83519L18.1654 5.27269C18.3945 5.49144 18.4674 5.83519 18.3529 6.12686C18.2383 6.41852 17.9466 6.61644 17.6237 6.61644L9.35287 6.59561C6.05078 6.59561 3.36328 9.29353 3.36328 12.606C3.36328 14.1998 3.98828 15.7102 5.1237 16.8456C5.42578 17.1477 5.42578 17.6477 5.1237 17.9498C4.96745 18.0956 4.76953 18.1685 4.57161 18.1685Z" fill="black"/>
    <path d="M10.918 22.929C10.7201 22.929 10.5326 22.8561 10.3764 22.7103L7.83469 20.2728C7.60553 20.054 7.53261 19.7103 7.64719 19.4186C7.77219 19.127 8.06386 18.9707 8.37636 18.929L16.6576 18.9499C19.9597 18.9499 22.6472 16.252 22.6472 12.9395C22.6472 11.3457 22.0222 9.83529 20.8868 8.69987C20.5847 8.39779 20.5847 7.89779 20.8868 7.5957C21.1889 7.29362 21.6889 7.29362 21.9909 7.5957C23.418 9.0332 24.2097 10.929 24.2097 12.9395C24.2097 17.1165 20.8243 20.5124 16.6576 20.5124L10.3347 20.4915L11.4701 21.5749C11.7826 21.877 11.793 22.3665 11.4909 22.679C11.3243 22.8457 11.1264 22.929 10.918 22.929Z" fill="black"/>
    <!-- <path d="M13.2602 16.3353C12.8331 16.3353 12.4789 15.9812 12.4789 15.5541V12.0228L12.281 12.2416C11.9894 12.5645 11.4998 12.5853 11.1769 12.3041C10.8539 12.0228 10.8331 11.5228 11.1144 11.1999L12.6769 9.46032C12.8956 9.22073 13.2394 9.1374 13.5414 9.25199C13.8435 9.37699 14.0414 9.65824 14.0414 9.99157V15.5645C14.0414 15.9916 13.6873 16.3353 13.2602 16.3353Z" fill="black"/> -->
</svg>
