<svg width="26" height="26" viewBox="0 0 26 26" fill="none" xmlns="http://www.w3.org/2000/svg">
    <path d="M23.1557 19.0019C23.1557 18.981 23.1453 18.9602 23.1453 18.9394C23.1349 18.856 23.1244 18.7727 23.0932 18.6998C23.0515 18.606 22.9994 18.5331 22.9369 18.4602C22.9369 18.4602 22.9369 18.4498 22.9265 18.4498C22.8536 18.3769 22.7703 18.3248 22.6765 18.2831C22.5828 18.2415 22.4786 18.2206 22.3744 18.2206L17.5099 18.2415C17.5099 18.2415 17.5099 18.2415 17.4994 18.2415C16.8744 18.2415 16.2703 17.9498 15.8953 17.4498L14.6244 15.8144C14.364 15.4706 13.8744 15.4081 13.5307 15.679C13.1869 15.9498 13.1244 16.429 13.3953 16.7727L14.6661 18.4081C15.3432 19.2831 16.4057 19.804 17.5099 19.804H17.5203L20.489 19.7935L19.7494 20.5331C19.4474 20.8352 19.4474 21.3352 19.7494 21.6373C19.9057 21.7935 20.1036 21.8665 20.3015 21.8665C20.4994 21.8665 20.6974 21.7935 20.8536 21.6373L22.9369 19.554C23.0099 19.481 23.0619 19.3977 23.1036 19.304C23.1349 19.1998 23.1557 19.0956 23.1557 19.0019Z" fill="black"/>
    <path d="M9.27083 7.24129C8.59375 6.30379 7.51042 5.75171 6.35417 5.75171C6.34375 5.75171 6.34375 5.75171 6.33333 5.75171L3.625 5.76213C3.19792 5.76213 2.84375 6.11629 2.84375 6.54338C2.84375 6.97046 3.19792 7.32463 3.625 7.32463L6.34375 7.31421H6.35417C7.01042 7.31421 7.625 7.62671 8 8.15796L9.125 9.72046C9.28125 9.92879 9.52083 10.0434 9.76042 10.0434C9.91667 10.0434 10.0833 9.99129 10.2188 9.89754C10.5729 9.63713 10.6458 9.14754 10.3958 8.80379L9.27083 7.24129Z" fill="black"/>
    <path d="M23.1458 6.60596C23.1458 6.58512 23.1562 6.56429 23.1562 6.55387C23.1562 6.44971 23.1354 6.34554 23.0937 6.25179C23.0521 6.15804 23 6.07471 22.9271 6.00179L20.8438 3.91846C20.5417 3.61637 20.0417 3.61637 19.7396 3.91846C19.4375 4.22054 19.4375 4.72054 19.7396 5.02262L20.4792 5.76221L17.6354 5.75179C17.625 5.75179 17.625 5.75179 17.6146 5.75179C16.4167 5.75179 15.2917 6.34554 14.625 7.35596L7.96875 17.3351C7.59375 17.8976 6.95833 18.2414 6.28125 18.2414H6.27083L3.625 18.2205C3.19792 18.2205 2.84375 18.5643 2.84375 19.0018C2.84375 19.4289 3.1875 19.783 3.625 19.783L6.28125 19.7935C6.29167 19.7935 6.29167 19.7935 6.30208 19.7935C7.51042 19.7935 8.625 19.1997 9.29167 18.1893L15.9479 8.21012C16.3229 7.64762 16.9583 7.30387 17.6354 7.30387H17.6458L22.375 7.32471C22.4792 7.32471 22.5729 7.30387 22.6771 7.26221C22.7708 7.22054 22.8542 7.16846 22.9271 7.09554C22.9271 7.09554 22.9271 7.08512 22.9375 7.08512C23 7.01221 23.0625 6.93929 23.0937 6.84554C23.125 6.77262 23.1354 6.68929 23.1458 6.60596Z" fill="black"/>
</svg>
