<svg width="23" height="20" viewBox="0 0 23 20" fill="none" xmlns="http://www.w3.org/2000/svg">
    <path d="M10.4188 1.12946C11.0806 0.656696 12 1.12982 12 1.94319V18.0568C12 18.8702 11.0806 19.3433 10.4188 18.8705L5 15H2C0.89543 15 0 14.1046 0 13V7C0 5.89543 0.895431 5 2 5H5L10.4188 1.12946Z" fill="black"/>
    <path d="M14.9922 14.9054C16.2331 13.6423 16.9985 11.9106 16.9985 10.0001C16.9985 8.08155 16.2266 6.34329 14.9766 5.07886" stroke="black" stroke-width="2" stroke-linecap="round" stroke-linejoin="round"/>
    <path d="M17.0388 19C20.1073 16.6863 22 13.5142 22 10.0146C22 6.50026 20.0913 3.31615 17 1" stroke="black" stroke-width="2" stroke-linecap="round" stroke-linejoin="round"/>
</svg>
