<svg width="249" height="37" viewBox="0 0 249 37" fill="none" xmlns="http://www.w3.org/2000/svg">
    <path d="M43.1177 27.2451C43.1177 29.6681 40.3578 31.183 38.1508 29.9715L22.6767 21.4774C20.4704 20.2663 20.4714 17.2387 22.6784 16.0272L38.1525 7.53303C40.3595 6.32155 43.1177 7.83457 43.1177 10.2567V27.2451Z" fill="white"/>
    <path d="M22.0951 26.5947C22.0951 29.0177 19.3353 30.5326 17.1283 29.3212L1.65413 20.827C-0.552124 19.6159 -0.551188 16.5883 1.65581 15.3768L17.13 6.88265C19.3369 5.67116 22.0951 7.18418 22.0951 9.60633V26.5947Z" fill="white"/>
    <path d="M205.879 27.2451C205.879 29.6681 208.639 31.183 210.846 29.9715L226.32 21.4774C228.526 20.2663 228.525 17.2387 226.318 16.0272L210.844 7.53303C208.637 6.32155 205.879 7.83457 205.879 10.2567L205.879 27.2451Z" fill="white"/>
    <path d="M226.901 26.5947C226.901 29.0177 229.661 30.5326 231.868 29.3212L247.342 20.827C249.549 19.6159 249.548 16.5883 247.341 15.3768L231.867 6.88265C229.66 5.67116 226.901 7.18418 226.901 9.60633V26.5947Z" fill="white"/>
    <rect x="111.336" width="11.2651" height="37" rx="3" fill="white"/>
    <rect x="127.723" width="11.2651" height="37" rx="3" fill="white"/>
</svg>
