<svg
        class="side-playlist-icon"
        width="34"
        height="34"
        viewBox="0 0 34 34"
        fill="none"
        xmlns="http://www.w3.org/2000/svg"
>
    <path
            d="M23.0857 7.84341L23.4019 8.7921V8.7921L23.0857 7.84341ZM21.2155 21.9142H22.2155V20.9142H21.2155V21.9142ZM25.2505 11.6295L25.5413 12.5862L25.2505 11.6295ZM26.0858 6.84347L25.7697 5.89478V5.89478L26.0858 6.84347ZM17.0008 12.0498C17.5531 12.0498 18.0008 11.6021 18.0008 11.0498C18.0008 10.4975 17.5531 10.0498 17.0008 10.0498V12.0498ZM6.80078 10.0498C6.2485 10.0498 5.80078 10.4975 5.80078 11.0498C5.80078 11.6021 6.2485 12.0498 6.80078 12.0498V10.0498ZM17.0008 17.1498C17.5531 17.1498 18.0008 16.7021 18.0008 16.1498C18.0008 15.5975 17.5531 15.1498 17.0008 15.1498V17.1498ZM6.80078 15.1498C6.2485 15.1498 5.80078 15.5975 5.80078 16.1498C5.80078 16.7021 6.2485 17.1498 6.80078 17.1498V15.1498ZM13.6008 22.2498C14.1531 22.2498 14.6008 21.8021 14.6008 21.2498C14.6008 20.6975 14.1531 20.2498 13.6008 20.2498V22.2498ZM6.80078 20.2498C6.2485 20.2498 5.80078 20.6975 5.80078 21.2498C5.80078 21.8021 6.2485 22.2498 6.80078 22.2498V20.2498ZM22.2155 12.8556V11.0368H20.2155V12.8556H22.2155ZM22.7695 6.89471C21.1242 7.44308 20.2155 9.26162 20.2155 11.0368H22.2155C22.2155 9.7911 22.8489 8.9764 23.4019 8.7921L22.7695 6.89471ZM19.5273 22.9142H21.2155V20.9142H19.5273V22.9142ZM20.2155 21.9142V23.6761H22.2155V21.9142H20.2155ZM17.839 26.1998C17.4987 26.1998 17.1508 25.8994 17.1508 25.4379H15.1508C15.1508 26.9226 16.3145 28.1998 17.839 28.1998V26.1998ZM20.2155 23.6761C20.2155 25.1106 19.1117 26.1998 17.839 26.1998V28.1998C20.2959 28.1998 22.2155 26.1338 22.2155 23.6761H20.2155ZM19.5273 20.9142C17.0704 20.9142 15.1508 22.9802 15.1508 25.4379H17.1508C17.1508 24.0035 18.2546 22.9142 19.5273 22.9142V20.9142ZM20.2155 12.8556V24.0285H22.2155V12.8556H20.2155ZM21.5062 13.8124L25.5413 12.5862L24.9598 10.6727L20.9247 11.8988L21.5062 13.8124ZM23.4019 8.7921L26.402 7.79217L25.7697 5.89478L22.7695 6.89471L23.4019 8.7921ZM28.2008 8.9712V7.66411H26.2008V8.9712H28.2008ZM25.5413 12.5862C27.1278 12.1041 28.2008 10.6292 28.2008 8.9712H26.2008C26.2008 9.76501 25.6881 10.4513 24.9598 10.6727L25.5413 12.5862ZM26.402 7.79217C26.2827 7.83195 26.2008 7.73608 26.2008 7.66411H28.2008C28.2008 6.41662 26.9883 5.48861 25.7697 5.89478L26.402 7.79217ZM17.0008 10.0498H6.80078V12.0498H17.0008V10.0498ZM17.0008 15.1498H6.80078V17.1498H17.0008V15.1498ZM13.6008 20.2498H6.80078V22.2498H13.6008V20.2498Z"
            fill="black"
    />
</svg>