<svg
        class="stage-icon"
        width="34"
        height="34"
        viewBox="0 0 34 34"
        fill="none"
        xmlns="http://www.w3.org/2000/svg"
>
    <path
            d="M22.0976 18.1466L21.5521 17.3085L21.5381 17.3176L21.5245 17.3271L22.0976 18.1466ZM22.0976 16.197L21.5047 17.0023L21.5493 17.0351L21.5973 17.0628L22.0976 16.197ZM14.2841 10.4435L14.8771 9.63828L14.8489 9.6175L14.8193 9.59875L14.2841 10.4435ZM12.6461 11.3029L13.6461 11.3L13.6461 11.2912L13.6459 11.2825L12.6461 11.3029ZM12.6788 22.6046L11.6789 22.6075L11.6789 22.6358L11.6806 22.6641L12.6788 22.6046ZM14.377 23.5464L14.8612 24.4214L14.9071 24.396L14.9501 24.3659L14.377 23.5464ZM8.49844 4.3999H25.4984V2.3999H8.49844V4.3999ZM29.5984 8.4999V25.4999H31.5984V8.4999H29.5984ZM25.4984 29.5999H8.49844V31.5999H25.4984V29.5999ZM4.39844 25.4999V8.4999H2.39844V25.4999H4.39844ZM8.49844 29.5999C6.23407 29.5999 4.39844 27.7643 4.39844 25.4999H2.39844C2.39844 28.8688 5.1295 31.5999 8.49844 31.5999V29.5999ZM29.5984 25.4999C29.5984 27.7643 27.7628 29.5999 25.4984 29.5999V31.5999C28.8674 31.5999 31.5984 28.8688 31.5984 25.4999H29.5984ZM25.4984 4.3999C27.7628 4.3999 29.5984 6.23553 29.5984 8.4999H31.5984C31.5984 5.13097 28.8674 2.3999 25.4984 2.3999V4.3999ZM8.49844 2.3999C5.1295 2.3999 2.39844 5.13097 2.39844 8.4999H4.39844C4.39844 6.23553 6.23407 4.3999 8.49844 4.3999V2.3999ZM22.6432 18.9847C23.2245 18.6062 23.8468 18.0008 23.8457 17.1423C23.8445 16.2613 23.1938 15.6755 22.598 15.3312L21.5973 17.0628C21.7751 17.1656 21.8494 17.2421 21.8715 17.2703C21.8806 17.2818 21.8736 17.276 21.8643 17.2517C21.8544 17.2257 21.8457 17.1886 21.8457 17.145C21.8455 17.0505 21.8834 17.0158 21.8555 17.0534C21.8231 17.0972 21.7373 17.188 21.5521 17.3085L22.6432 18.9847ZM22.6906 15.3918L14.8771 9.63828L13.6912 11.2488L21.5047 17.0023L22.6906 15.3918ZM14.8193 9.59875C14.2295 9.22519 13.4466 9.03889 12.7301 9.37343C11.9584 9.73376 11.6299 10.5189 11.6463 11.3233L13.6459 11.2825C13.6431 11.1452 13.6697 11.0996 13.6652 11.1082C13.6627 11.1129 13.6543 11.127 13.6367 11.144C13.619 11.1612 13.5979 11.1755 13.5763 11.1856C13.5316 11.2065 13.5136 11.1968 13.5446 11.2012C13.577 11.2057 13.6485 11.2246 13.749 11.2883L14.8193 9.59875ZM11.6461 11.3058L11.6789 22.6075L13.6788 22.6017L13.6461 11.3L11.6461 11.3058ZM11.6806 22.6641C11.7226 23.3692 11.9619 24.1902 12.719 24.5946C13.4657 24.9934 14.2727 24.7471 14.8612 24.4214L13.8927 22.6715C13.7223 22.7658 13.6177 22.7927 13.5748 22.7986C13.5398 22.8035 13.5859 22.7902 13.6612 22.8304C13.7381 22.8715 13.7551 22.9201 13.7423 22.8926C13.7251 22.856 13.6894 22.7519 13.6771 22.5452L11.6806 22.6641ZM14.9501 24.3659L22.6708 18.9661L21.5245 17.3271L13.8038 22.727L14.9501 24.3659Z"
            fill="black"
    />
</svg>