<svg width="24" height="26" viewBox="0 0 24 26" fill="none" xmlns="http://www.w3.org/2000/svg">
<path id="Vector" d="M19.2319 19.4673L18.2368 19.3684L18.2368 19.3684L19.2319 19.4673ZM4.76806 19.4674L3.77297 19.5663L3.77297 19.5663L4.76806 19.4674ZM7.14265 24.6321L6.71351 25.5353L6.71351 25.5353L7.14265 24.6321ZM5.50068 23.1376L4.6422 23.6504L4.6422 23.6504L5.50068 23.1376ZM18.4993 23.1376L19.3578 23.6504L19.3578 23.6504L18.4993 23.1376ZM16.8573 24.6321L17.2865 25.5353L17.2865 25.5353L16.8573 24.6321ZM1.5 5.28C0.947715 5.28 0.5 5.72772 0.5 6.28C0.5 6.83228 0.947715 7.28 1.5 7.28V5.28ZM22.5 7.28C23.0523 7.28 23.5 6.83228 23.5 6.28C23.5 5.72772 23.0523 5.28 22.5 5.28V7.28ZM13.6957 1.09813L13.9559 0.132578L13.9559 0.132578L13.6957 1.09813ZM15.7206 3.1346L16.6869 2.87716L16.6869 2.87715L15.7206 3.1346ZM10.3043 1.09813L10.5645 2.06369L10.5645 2.06369L10.3043 1.09813ZM8.27939 3.1346L9.24569 3.39205L9.24569 3.39205L8.27939 3.1346ZM16.336 10.6989C16.3906 10.1494 15.9894 9.65955 15.4399 9.60491C14.8903 9.55026 14.4005 9.95148 14.3458 10.5011L16.336 10.6989ZM13.3913 20.1011C13.3366 20.6506 13.7378 21.1404 14.2874 21.1951C14.837 21.2497 15.3268 20.8485 15.3815 20.2989L13.3913 20.1011ZM9.65418 10.5011C9.59954 9.95148 9.10972 9.55026 8.56015 9.60491C8.01057 9.65955 7.60935 10.1494 7.664 10.6989L9.65418 10.5011ZM8.61854 20.2989C8.67319 20.8485 9.16301 21.2497 9.71258 21.1951C10.2622 21.1404 10.6634 20.6506 10.6087 20.1011L8.61854 20.2989ZM13.1532 24H10.8468V26H13.1532V24ZM10.8468 24C9.85453 24 9.16793 23.9993 8.63108 23.9571C8.10672 23.9159 7.80452 23.8394 7.57179 23.7288L6.71351 25.5353C7.25521 25.7927 7.82852 25.9002 8.47435 25.9509C9.1077 26.0007 9.88597 26 10.8468 26V24ZM3.77297 19.5663C3.8686 20.5281 3.94527 21.3063 4.05741 21.9343C4.17169 22.5744 4.33463 23.1356 4.6422 23.6504L6.35916 22.6248C6.22563 22.4012 6.11944 22.1046 6.02627 21.5828C5.93096 21.049 5.86187 20.3612 5.76315 19.3684L3.77297 19.5663ZM7.5718 23.7288C7.06885 23.4899 6.64663 23.106 6.35916 22.6248L4.6422 23.6504C5.13175 24.4699 5.85225 25.1261 6.71351 25.5353L7.5718 23.7288ZM18.2368 19.3684C18.1381 20.3612 18.069 21.049 17.9737 21.5828C17.8806 22.1046 17.7744 22.4012 17.6408 22.6248L19.3578 23.6504C19.6654 23.1356 19.8283 22.5744 19.9426 21.9343C20.0547 21.3063 20.1314 20.5281 20.227 19.5663L18.2368 19.3684ZM13.1532 26C14.114 26 14.8923 26.0007 15.5256 25.9509C16.1715 25.9002 16.7448 25.7927 17.2865 25.5353L16.4282 23.7288C16.1955 23.8394 15.8933 23.9159 15.3689 23.9571C14.8321 23.9993 14.1455 24 13.1532 24V26ZM17.6408 22.6248C17.3534 23.106 16.9312 23.4899 16.4282 23.7288L17.2865 25.5353C18.1477 25.1261 18.8683 24.4699 19.3578 23.6504L17.6408 22.6248ZM14.8182 4.84V5.8H16.8182V4.84H14.8182ZM9.18182 5.8V4.84H7.18182V5.8H9.18182ZM12 2C12.9524 2 13.2314 2.00868 13.4355 2.06369L13.9559 0.132578C13.4317 -0.00868104 12.823 0 12 0V2ZM16.8182 4.84C16.8182 4.01128 16.8267 3.40181 16.6869 2.87716L14.7543 3.39205C14.8097 3.59987 14.8182 3.88318 14.8182 4.84H16.8182ZM13.4355 2.06369C14.0767 2.23647 14.5809 2.74128 14.7543 3.39205L16.6869 2.87715C16.3307 1.54019 15.2912 0.492413 13.9559 0.132578L13.4355 2.06369ZM12 0C11.177 0 10.5683 -0.00868105 10.0441 0.132578L10.5645 2.06369C10.7686 2.00868 11.0476 2 12 2V0ZM9.18182 4.84C9.18182 3.88318 9.19032 3.59987 9.24569 3.39205L7.3131 2.87715C7.17332 3.40181 7.18182 4.01128 7.18182 4.84H9.18182ZM10.0441 0.132578C8.7088 0.492413 7.6693 1.54019 7.3131 2.87715L9.24569 3.39205C9.41907 2.74128 9.92334 2.23647 10.5645 2.06369L10.0441 0.132578ZM14.3458 10.5011L13.3913 20.1011L15.3815 20.2989L16.336 10.6989L14.3458 10.5011ZM7.664 10.6989L8.61854 20.2989L10.6087 20.1011L9.65418 10.5011L7.664 10.6989ZM20.5432 7.28H22.5V5.28H20.5432V7.28ZM19.5481 6.18106L18.2368 19.3684L20.227 19.5663L21.5383 6.37894L19.5481 6.18106ZM15.8182 7.28H20.5432V5.28H15.8182V7.28ZM14.8182 5.8V6.28H16.8182V5.8H14.8182ZM8.18182 7.28H15.8182V5.28H8.18182V7.28ZM7.18182 5.8V6.28H9.18182V5.8H7.18182ZM1.5 7.28H3.45682V5.28H1.5V7.28ZM3.45682 7.28H8.18182V5.28H3.45682V7.28ZM5.76315 19.3684L4.45191 6.18106L2.46173 6.37894L3.77297 19.5663L5.76315 19.3684Z" fill="black"/>
</svg>
