<svg width="16" height="17" viewBox="0 0 16 17" fill="none" xmlns="http://www.w3.org/2000/svg">
<g id="Vector">
<path d="M14.4421 5.30129L14.981 8.36111C15.1156 9.12534 14.517 9.82435 13.728 9.82435H9.77018C9.37792 9.82435 9.07922 10.17 9.14271 10.5505L9.64892 13.5839C9.73116 14.0767 9.70767 14.581 9.57996 15.0644C9.47417 15.4648 9.15952 15.7863 8.74571 15.9168L8.63497 15.9517C8.38488 16.0306 8.11191 16.0123 7.87612 15.9007C7.61659 15.7779 7.42672 15.5539 7.35635 15.2876L6.99296 13.9122C6.87734 13.4746 6.70892 13.0522 6.49177 12.653C6.17448 12.0699 5.68393 11.6032 5.174 11.1717L4.07497 10.2419C3.76509 9.97971 3.60236 9.58708 3.63762 9.1867L4.25802 2.1422C4.31493 1.49604 4.86516 1 5.52499 1H9.07602C11.7353 1 14.0049 2.81921 14.4421 5.30129Z" fill="#FF8585"/>
<path d="M1.25 9.82435L1.99219 1.39696C2.01099 1.18349 1.83978 1 1.62179 1C1.41646 1 1.25 1.16361 1.25 1.36544V9.82435Z" fill="#FF8585"/>
<path d="M14.4421 5.30129L14.981 8.36111C15.1156 9.12534 14.517 9.82435 13.728 9.82435H9.77018C9.37792 9.82435 9.07922 10.17 9.14271 10.5505L9.64892 13.5839C9.73116 14.0767 9.70767 14.581 9.57996 15.0644C9.47417 15.4648 9.15952 15.7863 8.74571 15.9168L8.63497 15.9517C8.38488 16.0306 8.11191 16.0123 7.87612 15.9007C7.61659 15.7779 7.42672 15.5539 7.35635 15.2876L6.99296 13.9122C6.87734 13.4746 6.70892 13.0522 6.49177 12.653C6.17448 12.0699 5.68393 11.6032 5.174 11.1717L4.07497 10.2419C3.76509 9.97971 3.60236 9.58708 3.63762 9.1867L4.25802 2.1422C4.31493 1.49604 4.86516 1 5.52499 1H9.07602C11.7353 1 14.0049 2.81921 14.4421 5.30129Z" stroke="black" stroke-width="2"/>
<path d="M1.25 9.82435L1.99219 1.39696C2.01099 1.18349 1.83978 1 1.62179 1C1.41646 1 1.25 1.16361 1.25 1.36544V9.82435Z" stroke="black" stroke-width="2"/>
</g>
</svg>
