<svg width="26" height="27" viewBox="0 0 26 27" fill="none" xmlns="http://www.w3.org/2000/svg">
<g id="StageButtonGrabIcon">
<path id="Vector" d="M6.86111 21.6712V13.8198M16.25 10.7357V10.6141C16.25 9.10922 15.1737 8.00503 14.0626 8.37001L8.19456 10.2976C7.41088 10.5551 6.86111 11.4803 6.86111 12.5417V13.8198M16.25 10.7357V19.4427M16.25 10.7357L6.86111 13.8198M6.86111 20.1855H5.65741C4.32783 20.1855 3.25 21.2941 3.25 22.6617C3.25 23.3455 3.78892 23.8998 4.4537 23.8998C5.78328 23.8998 6.86111 22.7912 6.86111 21.4236V20.1855ZM16.25 17.9569H15.0463C13.7167 17.9569 12.6389 19.0656 12.6389 20.4331C12.6389 21.1169 13.1778 21.6712 13.8426 21.6712C15.1722 21.6712 16.25 20.5626 16.25 19.195V17.9569Z" stroke="black" stroke-width="2"/>
<path id="Vector_2" d="M18.85 3.09961V5.69961M18.85 5.69961V8.29961M18.85 5.69961H16.25M18.85 5.69961H21.45" stroke="black" stroke-width="2" stroke-linecap="round"/>
</g>
</svg>
