<svg width="16" height="21" viewBox="0 0 16 21" fill="none" xmlns="http://www.w3.org/2000/svg">
<path id="play" d="M14.9488 9.79115L1.94741 0.604946C1.79489 0.529009 1.62552 0.493249 1.45533 0.50105C1.28513 0.508852 1.11974 0.559958 0.974816 0.64953C0.829889 0.739102 0.710217 0.864177 0.627128 1.01292C0.544039 1.16166 0.500283 1.32914 0.5 1.49951V19.5008C0.500338 19.6712 0.544129 19.8386 0.627232 19.9874C0.710334 20.1361 0.83 20.2611 0.974911 20.3507C1.11982 20.4402 1.28518 20.4913 1.45536 20.4992C1.62553 20.507 1.79489 20.4713 1.94741 20.3954L14.9488 11.5803C15.1145 11.4969 15.2538 11.3691 15.3511 11.2111C15.4485 11.0531 15.5 10.8713 15.5 10.6857C15.5 10.5002 15.4485 10.3183 15.3511 10.1603C15.2538 10.0024 15.1145 9.87456 14.9488 9.79115Z" fill="#191D21"/>
</svg>
