<svg width="20" height="18" viewBox="0 0 20 18" fill="none" xmlns="http://www.w3.org/2000/svg">
<path id="playlist" fill-rule="evenodd" clip-rule="evenodd" d="M1.4473 9.89386L9.4473 5.89386C9.61305 5.81046 9.75236 5.68266 9.84971 5.5247C9.94706 5.36675 9.99861 5.18485 9.99861 4.99931C9.99861 4.81376 9.94706 4.63187 9.84971 4.47391C9.75236 4.31596 9.61305 4.18815 9.4473 4.10476L1.4473 0.104755C1.29478 0.0289065 1.12543 -0.00678259 0.955276 0.00106287C0.785118 0.00890833 0.619773 0.0600288 0.47488 0.14959C0.329987 0.239151 0.210334 0.364192 0.127237 0.512887C0.044141 0.661583 0.000347953 0.829017 0 0.999355V8.99936C0.000337552 9.1697 0.0441256 9.33714 0.127222 9.48584C0.210318 9.63453 0.329976 9.75958 0.474875 9.84913C0.619775 9.93869 0.785125 9.98979 0.955286 9.99762C1.12545 10.0054 1.29479 9.96974 1.4473 9.89386ZM13 5.99935H19C19.2652 5.99935 19.5196 5.894 19.7071 5.70646C19.8946 5.51892 20 5.26457 20 4.99935C20 4.73414 19.8946 4.47978 19.7071 4.29225C19.5196 4.10471 19.2652 3.99936 19 3.99936H13C12.7348 3.99936 12.4804 4.10471 12.2929 4.29225C12.1054 4.47978 12 4.73414 12 4.99935C12 5.26457 12.1054 5.51892 12.2929 5.70646C12.4804 5.894 12.7348 5.99935 13 5.99935ZM7.99988 7.99934H18.9999C19.2651 7.99934 19.5194 8.1047 19.707 8.29224C19.8945 8.47978 19.9999 8.73413 19.9999 8.99935C19.9999 9.26456 19.8945 9.51892 19.707 9.70646C19.5194 9.89399 19.2651 9.99935 18.9999 9.99935H7.99988C7.73466 9.99935 7.48031 9.89399 7.29277 9.70646C7.10524 9.51892 6.99988 9.26456 6.99988 8.99935C6.99988 8.73413 7.10524 8.47978 7.29277 8.29224C7.48031 8.1047 7.73466 7.99934 7.99988 7.99934ZM19 11.9994H1C0.734784 11.9994 0.48043 12.1047 0.292893 12.2922C0.105357 12.4798 0 12.7341 0 12.9994C0 13.2646 0.105357 13.5189 0.292893 13.7065C0.48043 13.894 0.734784 13.9994 1 13.9994H19C19.2652 13.9994 19.5196 13.894 19.7071 13.7065C19.8946 13.5189 20 13.2646 20 12.9994C20 12.7341 19.8946 12.4798 19.7071 12.2922C19.5196 12.1047 19.2652 11.9994 19 11.9994ZM1 15.9994H19C19.2652 15.9994 19.5196 16.1047 19.7071 16.2922C19.8946 16.4798 20 16.7341 20 16.9994C20 17.2646 19.8946 17.5189 19.7071 17.7065C19.5196 17.894 19.2652 17.9994 19 17.9994H1C0.734784 17.9994 0.48043 17.894 0.292893 17.7065C0.105357 17.5189 0 17.2646 0 16.9994C0 16.7341 0.105357 16.4798 0.292893 16.2922C0.48043 16.1047 0.734784 15.9994 1 15.9994Z" fill="#191D21"/>
</svg>
