<svg width="22" height="23" viewBox="0 0 22 23" fill="none" xmlns="http://www.w3.org/2000/svg">
<path id="Vector" d="M14.9246 21.5C14.9246 22.0523 15.3723 22.5 15.9246 22.5C16.4768 22.5 16.9246 22.0523 16.9246 21.5H14.9246ZM0 21.5C0 22.0523 0.447715 22.5 1 22.5C1.55228 22.5 2 22.0523 2 21.5H0ZM16.7585 12.2198C16.3774 12.6195 16.3925 13.2524 16.7922 13.6336C17.1919 14.0147 17.8249 13.9996 18.206 13.5999L16.7585 12.2198ZM21.7237 9.91067C22.1049 9.51097 22.0898 8.87798 21.6901 8.49686C21.2904 8.11574 20.6574 8.1308 20.2763 8.53051L21.7237 9.91067ZM18.206 8.53051C17.8249 8.1308 17.1919 8.11574 16.7922 8.49686C16.3925 8.87799 16.3774 9.51097 16.7585 9.91068L18.206 8.53051ZM20.2763 13.5999C20.6574 13.9996 21.2904 14.0147 21.6901 13.6336C22.0898 13.2524 22.1049 12.6195 21.7237 12.2198L20.2763 13.5999ZM13.059 7.5C13.059 10.3281 10.9366 12.5 8.46228 12.5V14.5C12.1699 14.5 15.059 11.2993 15.059 7.5H13.059ZM8.46228 12.5C5.98798 12.5 3.86557 10.3281 3.86557 7.5H1.86557C1.86557 11.2993 4.75462 14.5 8.46228 14.5V12.5ZM3.86557 7.5C3.86557 4.6719 5.98798 2.5 8.46228 2.5V0.5C4.75462 0.5 1.86557 3.70068 1.86557 7.5H3.86557ZM8.46228 2.5C10.9366 2.5 13.059 4.6719 13.059 7.5H15.059C15.059 3.70068 12.1699 0.5 8.46228 0.5V2.5ZM2 21.5C2 20.3805 2.0014 19.3923 2.10926 18.507C2.21633 17.6281 2.42054 16.9324 2.77341 16.3848C3.42755 15.3695 4.84873 14.5 8.46228 14.5V12.5C4.61355 12.5 2.30359 13.4213 1.09216 15.3015C0.512242 16.2016 0.250064 17.2298 0.123937 18.2651C-0.0014026 19.294 0 20.4103 0 21.5H2ZM8.43898 14.4997C12.0651 14.5842 13.4975 15.4508 14.1549 16.4558C14.5058 16.9922 14.7089 17.6704 14.8155 18.5331C14.9231 19.4038 14.9246 20.38 14.9246 21.5H16.9246C16.9246 20.4109 16.926 19.3042 16.8004 18.2878C16.6738 17.2636 16.4105 16.2505 15.8286 15.3609C14.6204 13.514 12.3218 12.5897 8.48558 12.5003L8.43898 14.4997ZM18.206 13.5999L19.9649 11.7553L18.5174 10.3751L16.7585 12.2198L18.206 13.5999ZM19.9649 11.7553L21.7237 9.91067L20.2763 8.53051L18.5174 10.3751L19.9649 11.7553ZM16.7585 9.91068L18.5174 11.7553L19.9649 10.3751L18.206 8.53051L16.7585 9.91068ZM18.5174 11.7553L20.2763 13.5999L21.7237 12.2198L19.9649 10.3751L18.5174 11.7553Z" fill="black"/>
</svg>
