<svg width="17" height="17" viewBox="0 0 17 17" fill="none" xmlns="http://www.w3.org/2000/svg">
<g id="Vector">
<path d="M14.6921 11.6987L15.231 8.63889C15.3656 7.87466 14.767 7.17565 13.978 7.17565H10.0202C9.62792 7.17565 9.32922 6.82996 9.39271 6.44949L9.89892 3.41607C9.98116 2.92326 9.95767 2.419 9.82996 1.93564C9.72417 1.53523 9.40952 1.21371 8.99571 1.08319L8.88497 1.04827C8.63488 0.969385 8.36191 0.98774 8.12612 1.09929C7.86659 1.22208 7.67672 1.44605 7.60635 1.71242L7.24296 3.08781C7.12734 3.52542 6.95892 3.94784 6.74177 4.34696C6.42448 4.93013 5.93393 5.39685 5.424 5.82827L4.32497 6.75812C4.01509 7.02029 3.85236 7.41292 3.88762 7.8133L4.50802 14.8578C4.56493 15.504 5.11516 16 5.77499 16H9.32602C11.9853 16 14.2549 14.1808 14.6921 11.6987Z" fill="#99FF99"/>
<path d="M1.5 7.17565L2.24219 15.603C2.26099 15.8165 2.08978 16 1.87179 16C1.66646 16 1.5 15.8364 1.5 15.6346V7.17565Z" fill="#99FF99"/>
<path d="M14.6921 11.6987L15.231 8.63889C15.3656 7.87466 14.767 7.17565 13.978 7.17565H10.0202C9.62792 7.17565 9.32922 6.82996 9.39271 6.44949L9.89892 3.41607C9.98116 2.92326 9.95767 2.419 9.82996 1.93564C9.72417 1.53523 9.40952 1.21371 8.99571 1.08319L8.88497 1.04827C8.63488 0.969385 8.36191 0.98774 8.12612 1.09929C7.86659 1.22208 7.67672 1.44605 7.60635 1.71242L7.24296 3.08781C7.12734 3.52542 6.95892 3.94784 6.74177 4.34696C6.42448 4.93013 5.93393 5.39685 5.424 5.82827L4.32497 6.75812C4.01509 7.02029 3.85236 7.41292 3.88762 7.8133L4.50802 14.8578C4.56493 15.504 5.11516 16 5.77499 16H9.32602C11.9853 16 14.2549 14.1808 14.6921 11.6987Z" stroke="black" stroke-width="2"/>
<path d="M1.5 7.17565L2.24219 15.603C2.26099 15.8165 2.08978 16 1.87179 16C1.66646 16 1.5 15.8364 1.5 15.6346V7.17565Z" stroke="black" stroke-width="2"/>
</g>
</svg>
