<svg xmlns="http://www.w3.org/2000/svg" width="31" height="30" viewBox="0 0 31 30" fill="none">
  <path d="M19.8351 17.5H18.836L18.482 17.1625C19.7213 15.7375 20.4674 13.8875 20.4674 11.875C20.4674 7.3875 16.7874 3.75 12.2474 3.75C7.70739 3.75 4.02734 7.3875 4.02734 11.875C4.02734 16.3625 7.70739 20 12.2474 20C14.2834 20 16.155 19.2625 17.5967 18.0375L17.9382 18.3875V19.375L24.2613 25.6125L26.1455 23.75L19.8351 17.5V17.5ZM12.2474 17.5C9.09847 17.5 6.55658 14.9875 6.55658 11.875C6.55658 8.7625 9.09847 6.25 12.2474 6.25C15.3963 6.25 17.9382 8.7625 17.9382 11.875C17.9382 14.9875 15.3963 17.5 12.2474 17.5Z" fill="#191D21"/>
</svg>