<svg width="30" height="31" viewBox="0 0 30 31" fill="none" xmlns="http://www.w3.org/2000/svg">
<g id="SLPMystagePlayingAuthorIcon">
<path id="Vector" d="M14 24.0835C14 24.6358 14.4477 25.0835 15 25.0835C15.5523 25.0835 16 24.6358 16 24.0835H14ZM16.8 13.0002C16.2477 13.0002 15.8 13.4479 15.8 14.0002C15.8 14.5524 16.2477 15.0002 16.8 15.0002L16.8 13.0002ZM16.8 16.6668C16.2477 16.6668 15.8 17.1145 15.8 17.6668C15.8 18.2191 16.2477 18.6668 16.8 18.6668V16.6668ZM14.1 15.0002C14.6523 15.0002 15.1 14.5524 15.1 14.0002C15.1 13.4479 14.6523 13.0002 14.1 13.0002V15.0002ZM14.1 18.6668C14.6523 18.6668 15.1 18.2191 15.1 17.6668C15.1 17.1145 14.6523 16.6668 14.1 16.6668V18.6668ZM7.7 16.7502C7.7 17.3024 8.14772 17.7502 8.7 17.7502C9.25228 17.7502 9.7 17.3024 9.7 16.7502H7.7ZM17.6 14.0002V17.6668H19.6V14.0002H17.6ZM12.4 17.6668V14.0002H10.4V17.6668H12.4ZM15 20.3335C13.5813 20.3335 12.4 19.157 12.4 17.6668H10.4C10.4 20.2268 12.4423 22.3335 15 22.3335V20.3335ZM17.6 17.6668C17.6 19.157 16.4187 20.3335 15 20.3335V22.3335C17.5577 22.3335 19.6 20.2268 19.6 17.6668H17.6ZM15 11.3335C16.4187 11.3335 17.6 12.51 17.6 14.0002H19.6C19.6 11.4402 17.5577 9.3335 15 9.3335V11.3335ZM15 9.3335C12.4423 9.3335 10.4 11.4402 10.4 14.0002H12.4C12.4 12.51 13.5813 11.3335 15 11.3335V9.3335ZM14 21.3335V24.0835H16V21.3335H14ZM18.6 13.0002L16.8 13.0002L16.8 15.0002L18.6 15.0002L18.6 13.0002ZM18.6 16.6668H16.8V18.6668H18.6V16.6668ZM11.4 15.0002H14.1V13.0002H11.4V15.0002ZM11.4 18.6668H14.1V16.6668H11.4V18.6668ZM20.3 13.5944V16.7502H22.3V13.5944H20.3ZM9.7 16.7502V13.5944H7.7V16.7502H9.7ZM15 8.5835C17.9719 8.5835 20.3 10.8707 20.3 13.5944H22.3C22.3 9.67865 18.9869 6.5835 15 6.5835V8.5835ZM15 6.5835C11.0131 6.5835 7.7 9.67865 7.7 13.5944H9.7C9.7 10.8707 12.0281 8.5835 15 8.5835V6.5835ZM23 16.2918V17.2085H25V16.2918H23ZM22.3 17.2085V16.2918H20.3V17.2085H22.3ZM22.65 17.5835C22.4739 17.5835 22.3 17.433 22.3 17.2085H20.3C20.3 18.5028 21.3349 19.5835 22.65 19.5835V17.5835ZM23 17.2085C23 17.433 22.8261 17.5835 22.65 17.5835V19.5835C23.9651 19.5835 25 18.5028 25 17.2085H23ZM22.65 15.9168C22.8261 15.9168 23 16.0673 23 16.2918H25C25 14.9975 23.9651 13.9168 22.65 13.9168V15.9168ZM22.65 13.9168C21.3349 13.9168 20.3 14.9975 20.3 16.2918H22.3C22.3 16.0673 22.4739 15.9168 22.65 15.9168V13.9168ZM7.7 16.2918V17.2085H9.7V16.2918H7.7ZM7 17.2085V16.2918H5V17.2085H7ZM7.35 17.5835C7.17392 17.5835 7 17.433 7 17.2085H5C5 18.5028 6.03491 19.5835 7.35 19.5835V17.5835ZM7.7 17.2085C7.7 17.433 7.52608 17.5835 7.35 17.5835V19.5835C8.66509 19.5835 9.7 18.5028 9.7 17.2085H7.7ZM7.35 15.9168C7.52608 15.9168 7.7 16.0673 7.7 16.2918H9.7C9.7 14.9975 8.66509 13.9168 7.35 13.9168V15.9168ZM7.35 13.9168C6.03491 13.9168 5 14.9975 5 16.2918H7C7 16.0673 7.17392 15.9168 7.35 15.9168V13.9168Z" fill="black"/>
</g>
</svg>
