<svg width="30" height="31" viewBox="0 0 30 31" fill="none" xmlns="http://www.w3.org/2000/svg">
<g id="SLPMystageQIcon">
<path id="Vector" d="M20.3691 7.58733L20.6852 8.53602L20.3691 7.58733ZM18.7189 20.0028H19.7189V19.0028H18.7189V20.0028ZM22.2792 10.928L22.57 11.8848L22.2792 10.928ZM23.0162 6.70504L22.7 5.75634L23.0162 6.70504ZM15 11.4165C15.5523 11.4165 16 10.9688 16 10.4165C16 9.86422 15.5523 9.4165 15 9.4165V11.4165ZM6 9.4165C5.44772 9.4165 5 9.86422 5 10.4165C5 10.9688 5.44772 11.4165 6 11.4165V9.4165ZM15 15.9165C15.5523 15.9165 16 15.4688 16 14.9165C16 14.3642 15.5523 13.9165 15 13.9165V15.9165ZM6 13.9165C5.44772 13.9165 5 14.3642 5 14.9165C5 15.4688 5.44772 15.9165 6 15.9165V13.9165ZM12 20.4165C12.5523 20.4165 13 19.9688 13 19.4165C13 18.8642 12.5523 18.4165 12 18.4165V20.4165ZM6 18.4165C5.44772 18.4165 5 18.8642 5 19.4165C5 19.9688 5.44772 20.4165 6 20.4165V18.4165ZM19.7189 12.0099V10.405H17.7189V12.0099H19.7189ZM20.0529 6.63863C18.5369 7.1439 17.7189 8.80755 17.7189 10.405H19.7189C19.7189 9.33702 20.2616 8.67723 20.6852 8.53602L20.0529 6.63863ZM17.2292 21.0028H18.7189V19.0028H17.2292V21.0028ZM17.7189 20.0028V21.5573H19.7189V20.0028H17.7189ZM15.7396 23.6665C15.509 23.6665 15.25 23.4589 15.25 23.1119H13.25C13.25 24.4821 14.3248 25.6665 15.7396 25.6665V23.6665ZM17.7189 21.5573C17.7189 22.7629 16.7929 23.6665 15.7396 23.6665V25.6665C17.9771 25.6665 19.7189 23.7861 19.7189 21.5573H17.7189ZM17.2292 19.0028C14.9918 19.0028 13.25 20.8832 13.25 23.1119H15.25C15.25 21.9064 16.1759 21.0028 17.2292 21.0028V19.0028ZM17.7189 12.0099V21.8683H19.7189V12.0099H17.7189ZM19.0096 12.9667L22.57 11.8848L21.9884 9.97116L18.4281 11.0531L19.0096 12.9667ZM20.6852 8.53602L23.3324 7.65373L22.7 5.75634L20.0529 6.63863L20.6852 8.53602ZM25 8.58244V7.42913H23V8.58244H25ZM22.57 11.8848C24.0203 11.444 25 10.0962 25 8.58244H23C23 9.23203 22.5806 9.7912 21.9884 9.97116L22.57 11.8848ZM23.3324 7.65373C23.1484 7.71507 23 7.57024 23 7.42913H25C25 6.25079 23.854 5.37172 22.7 5.75634L23.3324 7.65373ZM15 9.4165H6V11.4165H15V9.4165ZM15 13.9165H6V15.9165H15V13.9165ZM12 18.4165H6V20.4165H12V18.4165Z" fill="black"/>
</g>
</svg>
