<svg width="30" height="31" viewBox="0 0 30 31" fill="none" xmlns="http://www.w3.org/2000/svg">
<g id="SLPMystagePeopleIcon">
<path id="Vector" d="M17.4745 23.9165C17.4745 24.4688 17.9222 24.9165 18.4745 24.9165C19.0268 24.9165 19.4745 24.4688 19.4745 23.9165H17.4745ZM4.25 23.9165C4.25 24.4688 4.69772 24.9165 5.25 24.9165C5.80228 24.9165 6.25 24.4688 6.25 23.9165H4.25ZM20.6009 19.3252V18.3252C20.0527 18.3252 19.6067 18.7666 19.6009 19.3147C19.5952 19.8629 20.0319 20.3135 20.58 20.325L20.6009 19.3252ZM20.2265 11.4382C19.6742 11.4382 19.2265 11.886 19.2265 12.4382C19.2265 12.9905 19.6742 13.4382 20.2265 13.4382V11.4382ZM23.7194 23.9165C23.7194 24.4688 24.1671 24.9165 24.7194 24.9165C25.2717 24.9165 25.7194 24.4688 25.7194 23.9165H23.7194ZM15.8214 12.3665C15.8214 14.5463 14.0506 16.3165 11.8623 16.3165V18.3165C15.1517 18.3165 17.8214 15.6543 17.8214 12.3665H15.8214ZM11.8623 16.3165C9.6739 16.3165 7.90306 14.5463 7.90306 12.3665H5.90306C5.90306 15.6543 8.57283 18.3165 11.8623 18.3165V16.3165ZM7.90306 12.3665C7.90306 10.1867 9.6739 8.4165 11.8623 8.4165V6.4165C8.57283 6.4165 5.90306 9.07866 5.90306 12.3665H7.90306ZM11.8623 8.4165C14.0506 8.4165 15.8214 10.1867 15.8214 12.3665H17.8214C17.8214 9.07866 15.1517 6.4165 11.8623 6.4165V8.4165ZM6.25 23.9165C6.25 22.9893 6.25161 22.1899 6.34486 21.4772C6.43693 20.7736 6.60992 20.2361 6.89883 19.8187C7.43636 19.0419 8.65015 18.3165 11.8623 18.3165V16.3165C8.4621 16.3165 6.36977 17.0686 5.25423 18.6805C4.71661 19.4574 4.47634 20.3421 4.36177 21.2177C4.24839 22.0843 4.25 23.0212 4.25 23.9165H6.25ZM11.8406 18.3163C15.0638 18.3862 16.2886 19.108 16.8297 19.8783C17.1167 20.2867 17.2883 20.8096 17.3799 21.4992C17.4728 22.1995 17.4745 22.9887 17.4745 23.9165H19.4745C19.4745 23.0218 19.4762 22.0926 19.3625 21.2361C19.2474 20.3689 19.0058 19.4966 18.4662 18.7285C17.3543 17.1459 15.273 16.3903 11.8839 16.3167L11.8406 18.3163ZM22.5255 15.8817C22.5255 16.682 22.3246 17.3048 22.0152 17.7033C21.7314 18.0687 21.2989 18.3252 20.6009 18.3252V20.3252C21.8809 20.3252 22.9108 19.8108 23.5948 18.93C24.2531 18.0822 24.5255 16.9832 24.5255 15.8817H22.5255ZM20.2265 13.4382C21.582 13.4382 22.5255 14.4592 22.5255 15.8817H24.5255C24.5255 13.5006 22.8271 11.4382 20.2265 11.4382V13.4382ZM20.58 20.325C22.9282 20.3741 23.4145 20.8866 23.5669 21.1748C23.6736 21.3766 23.7359 21.6739 23.7477 22.1674C23.7535 22.4083 23.7474 22.6686 23.7387 22.9662C23.7303 23.2562 23.7194 23.5815 23.7194 23.9165H25.7194C25.7194 23.6176 25.7291 23.3271 25.7379 23.0244C25.7465 22.7293 25.7544 22.42 25.7472 22.1194C25.733 21.5299 25.661 20.8566 25.335 20.24C24.622 18.8914 23.0491 18.3761 20.6218 18.3254L20.58 20.325Z" fill="black"/>
</g>
</svg>
