<svg width="50" height="50" viewBox="0 0 50 50" fill="none" xmlns="http://www.w3.org/2000/svg">
<g id="StageButtonUpIcon">
<g id="Vector">
<path d="M37.6341 31.3974L38.712 25.2778C38.9813 23.7493 37.7841 22.3513 36.2059 22.3513H28.2904C27.5058 22.3513 26.9084 21.6599 27.0354 20.899L28.0478 14.8321C28.2123 13.8465 28.1653 12.838 27.9099 11.8713C27.6983 11.0705 27.069 10.4274 26.2414 10.1664L26.0199 10.0965C25.5198 9.93877 24.9738 9.97548 24.5022 10.1986C23.9832 10.4442 23.6034 10.8921 23.4627 11.4248L22.7359 14.1756C22.5047 15.0508 22.1678 15.8957 21.7335 16.6939C21.099 17.8603 20.1179 18.7937 19.098 19.6565L16.8999 21.5162C16.2802 22.0406 15.9547 22.8258 16.0252 23.6266L17.266 37.7156C17.3799 39.0079 18.4803 40 19.8 40H26.902C32.2207 40 36.7598 36.3616 37.6341 31.3974Z" stroke="black" stroke-width="2"/>
<path d="M11.25 22.3513L12.7344 39.2061C12.772 39.633 12.4296 40 11.9936 40C11.5829 40 11.25 39.6728 11.25 39.2691V22.3513Z" stroke="black" stroke-width="2"/>
</g>
</g>
</svg>
