<svg width="50" height="50" viewBox="0 0 50 50" fill="none" xmlns="http://www.w3.org/2000/svg">
<g id="StageButtonGrabIcon">
<path id="Vector" d="M13.1944 40.7143V25.6154M31.25 19.6843V19.4505C31.25 16.5566 29.1802 14.4331 27.0435 15.135L15.7588 18.842C14.2517 19.337 13.1944 21.1163 13.1944 23.1575V25.6154M31.25 19.6843V36.4286M31.25 19.6843L13.1944 25.6154M13.1944 37.8571H10.8796C8.32276 37.8571 6.25 39.9891 6.25 42.619C6.25 43.934 7.28638 45 8.56482 45C11.1217 45 13.1944 42.868 13.1944 40.2381V37.8571ZM31.25 33.5714H28.9352C26.3783 33.5714 24.3056 35.7034 24.3056 38.3333C24.3056 39.6483 25.3419 40.7143 26.6204 40.7143C29.1772 40.7143 31.25 38.5823 31.25 35.9524V33.5714Z" stroke="black" stroke-width="2"/>
<path id="Vector_2" d="M36.25 5V10M36.25 10V15M36.25 10H31.25M36.25 10H41.25" stroke="black" stroke-width="2" stroke-linecap="round"/>
</g>
</svg>
