<svg width="50" height="50" viewBox="0 0 50 50" fill="none" xmlns="http://www.w3.org/2000/svg">
<g id="StageButtonDownIcon">
<g id="Vector">
<path d="M37.6341 18.6026L38.712 24.7222C38.9813 26.2507 37.7841 27.6487 36.2059 27.6487H28.2904C27.5058 27.6487 26.9084 28.3401 27.0354 29.101L28.0478 35.1679C28.2123 36.1535 28.1653 37.162 27.9099 38.1287C27.6983 38.9295 27.069 39.5726 26.2414 39.8336L26.0199 39.9035C25.5198 40.0612 24.9738 40.0245 24.5022 39.8014C23.9832 39.5558 23.6034 39.1079 23.4627 38.5752L22.7359 35.8244C22.5047 34.9492 22.1678 34.1043 21.7335 33.3061C21.099 32.1397 20.1179 31.2063 19.098 30.3435L16.8999 28.4838C16.2802 27.9594 15.9547 27.1742 16.0252 26.3734L17.266 12.2844C17.3799 10.9921 18.4803 10 19.8 10H26.902C32.2207 10 36.7598 13.6384 37.6341 18.6026Z" stroke="black" stroke-width="2"/>
<path d="M11.25 27.6487L12.7344 10.7939C12.772 10.367 12.4296 10 11.9936 10C11.5829 10 11.25 10.3272 11.25 10.7309V27.6487Z" stroke="black" stroke-width="2"/>
</g>
</g>
</svg>
