<svg width="40" height="41" viewBox="0 0 40 41" fill="none" xmlns="http://www.w3.org/2000/svg">
<g id="StagePeopleMasterIcon">
<path id="Subtract" d="M2.74415 11.1615C2.7934 10.7011 3.36531 10.5883 3.6287 10.969L8.03986 17.3458C9.2592 19.1085 11.9132 18.9509 12.9152 17.0562L19.4033 4.78914C19.5206 4.56741 19.7508 4.42871 20.0017 4.42871C20.2525 4.42871 20.4828 4.56741 20.6 4.78914L27.0881 17.0562C28.0902 18.9509 30.7442 19.1085 31.9635 17.3458L36.3746 10.969C36.638 10.5883 37.2099 10.7011 37.2592 11.1615C37.5843 14.2001 37.8588 17.3197 37.8588 20.5001C37.8588 23.6806 37.5843 26.8002 37.2592 29.8388C36.8188 33.9549 33.5082 37.2655 29.3941 37.7241C26.3382 38.0647 23.2006 38.3573 20.0017 38.3573C16.8027 38.3573 13.6651 38.0647 10.6093 37.7241C6.49512 37.2655 3.18453 33.9549 2.74415 29.8388C2.41906 26.8002 2.14453 23.6806 2.14453 20.5001C2.14453 17.3197 2.41906 14.2001 2.74415 11.1615Z" fill="#FFF500" stroke="#B5AD00" stroke-width="3" stroke-linejoin="round"/>
</g>
</svg>
